<svg id="Calque_1" data-name="Calque 1" xmlns="http://www.w3.org/2000/svg" viewBox="0 0 218.7 120.7">
  <path d="M160.5,31.9c0-4.4,1.1-7.8,3.4-10.2s5.3-3.6,9.2-3.6h1.1V13.3a17,17,0,0,0-9.1,2.2,12.9,12.9,0,0,0-4.8,5.3V13.7h-4.8V50.8h5ZM26,45.6a20.2,20.2,0,0,1-7.6,1.2,26.4,26.4,0,0,1-9.3-1.7,20.4,20.4,0,0,1-7-4.3L0,44.8a19.5,19.5,0,0,0,7.8,4.7,31.5,31.5,0,0,0,10.6,1.8,26.3,26.3,0,0,0,10.5-1.9,13.7,13.7,0,0,0,6-5,12.2,12.2,0,0,0,2-6.7,10.5,10.5,0,0,0-6.1-10.1,28.1,28.1,0,0,0-5.9-2.4l-6.5-1.7a42.7,42.7,0,0,1-6-1.8A10.3,10.3,0,0,1,8,19a6.7,6.7,0,0,1-1.6-4.7A7.6,7.6,0,0,1,7.8,9.7,9.4,9.4,0,0,1,12,6.5a19.8,19.8,0,0,1,7.4-1.2,24.5,24.5,0,0,1,6.9,1,26,26,0,0,1,6.8,3.1l1.7-4.2a25.2,25.2,0,0,0-7-3.2A29.8,29.8,0,0,0,19.5.8,25.8,25.8,0,0,0,9.1,2.7a12.9,12.9,0,0,0-5.9,5,12.2,12.2,0,0,0-2,6.7,11,11,0,0,0,1.7,6.4,11.4,11.4,0,0,0,4.4,4,28.1,28.1,0,0,0,5.9,2.4l6.6,1.6a45.5,45.5,0,0,1,5.9,1.8,11.5,11.5,0,0,1,4.4,2.8,6.7,6.7,0,0,1,1.6,4.7,7,7,0,0,1-1.4,4.4A8.5,8.5,0,0,1,26,45.6Zm36,1.3a6.1,6.1,0,0,1-4.7-1.8,6.8,6.8,0,0,1-1.7-5V17.8H66.9V13.7H55.6V5.4h-5v8.3H43.9v4.1h6.7V40.4c0,3.4.9,6.1,2.8,8a11.4,11.4,0,0,0,8.1,2.8,15.9,15.9,0,0,0,4.3-.6,11,11,0,0,0,3.5-2L67.6,45A8.6,8.6,0,0,1,62,46.9ZM35.2,98,4.3,59.1H.1v48H5.2V68.2L36,107.1h4.2v-48h-5Zm19.5,9.1h4.9v-36H54.7Zm2.5-50.8a3.3,3.3,0,0,0-2.5,1,3,3,0,0,0-1.1,2.4,3.4,3.4,0,0,0,1.1,2.5,3.7,3.7,0,0,0,2.5,1,3.8,3.8,0,0,0,2.6-1,4,4,0,0,0,1-2.6,3.4,3.4,0,0,0-1.1-2.4A3.5,3.5,0,0,0,57.2,56.3Zm44.6,21.6a14.5,14.5,0,0,0-5.6-5.1,18.5,18.5,0,0,0-8.6-2A18.7,18.7,0,0,0,78.4,73a15.9,15.9,0,0,0-6.5,6.1,17.2,17.2,0,0,0-2.4,9.1,17.4,17.4,0,0,0,2.4,9.1,16.9,16.9,0,0,0,6.5,6.2,18.7,18.7,0,0,0,9.2,2.2,18.5,18.5,0,0,0,8.6-2,14.9,14.9,0,0,0,5.4-4.9v4.5c0,4.5-1,7.8-3.2,9.9s-5.5,3.2-10,3.2a25.2,25.2,0,0,1-7.9-1.3,19.3,19.3,0,0,1-6.3-3.6l-2.5,3.7a20.5,20.5,0,0,0,7.3,4.1,33.6,33.6,0,0,0,9.5,1.4c5.9,0,10.4-1.4,13.5-4.3s4.5-7.5,4.5-13.7V71.1h-4.7ZM100,95.1a12.8,12.8,0,0,1-4.9,4.6,15.3,15.3,0,0,1-14,0,12.8,12.8,0,0,1-4.9-4.6,14.9,14.9,0,0,1,0-13.8,12.8,12.8,0,0,1,4.9-4.6,15.3,15.3,0,0,1,14,0,12.8,12.8,0,0,1,4.9,4.6,14.1,14.1,0,0,1,0,13.8Zm73.9-22.6a15.9,15.9,0,0,0-7.7-1.7,17.2,17.2,0,0,0-9,2.2,13.3,13.3,0,0,0-4.5,4.3v-21h-4.8v50.8h4.8V88.2a13.7,13.7,0,0,1,1.6-7,9.9,9.9,0,0,1,4.3-4.5,14.4,14.4,0,0,1,6.7-1.5c3.4,0,6.1.9,8,2.9s2.8,4.8,2.8,8.6v20.4H181V86.2a16.9,16.9,0,0,0-1.9-8.6A11.6,11.6,0,0,0,173.9,72.5ZM214,89.6a20.8,20.8,0,0,0-4.6-1.6l-5-1-4.5-1a9.2,9.2,0,0,1-3.4-1.9,4.1,4.1,0,0,1-1.3-3.2,5.4,5.4,0,0,1,2.3-4.3c1.6-1.1,3.9-1.6,7.2-1.6a21.3,21.3,0,0,1,5.5.7,19.5,19.5,0,0,1,5.1,2.3l2.1-3.9a18.8,18.8,0,0,0-5.7-2.4,28.6,28.6,0,0,0-7-.9,19.9,19.9,0,0,0-7.8,1.3,10.7,10.7,0,0,0-4.8,3.7,9.5,9.5,0,0,0-.4,10.2,10.2,10.2,0,0,0,3.3,2.9,20.8,20.8,0,0,0,4.6,1.6l5,1a28.5,28.5,0,0,1,4.6,1,6.5,6.5,0,0,1,3.3,1.7,3.7,3.7,0,0,1,1.3,3.1,5.1,5.1,0,0,1-2.3,4.3c-1.5,1-3.9,1.6-7.4,1.6a21.8,21.8,0,0,1-7.2-1.2,22.6,22.6,0,0,1-5.6-2.9l-2.2,3.9a21.7,21.7,0,0,0,6.3,3.2,28.4,28.4,0,0,0,8.4,1.2,23.6,23.6,0,0,0,8-1.2,11.7,11.7,0,0,0,5.1-3.6,8.7,8.7,0,0,0,1.8-5.5,7.7,7.7,0,0,0-4.7-7.5ZM196.7,61a21.4,21.4,0,0,0,3.4-5.7l18.6-41.6h-4.9l-14,31.6L185.7,13.7h-5.2l16.6,37-1.6,3.7a12.9,12.9,0,0,1-3.4,4.8,6.4,6.4,0,0,1-4.3,1.4,8.7,8.7,0,0,1-3.7-.7,10.6,10.6,0,0,1-3.1-2.1l-2.3,3.7a10.7,10.7,0,0,0,4,2.6,16.9,16.9,0,0,0,5,.8,13,13,0,0,0,4.9-.9A9.4,9.4,0,0,0,196.7,61ZM122.9,19.6l-20.3-.4L95.9,0,89.2,19.2l-20.3.4L85.1,31.9,79.2,51.4,95.9,39.7l16.7,11.7-5.9-19.5Zm9.1,83.6c-2,0-3.6-.5-4.6-1.7a6.5,6.5,0,0,1-1.7-4.8V75.2h11V71.1h-11V63.2h-4.8v7.9h-6.5v4.1h6.5V96.9q0,5.1,2.7,7.8t7.8,2.7a15.2,15.2,0,0,0,4.2-.6,8.1,8.1,0,0,0,3.4-1.9l-1.7-3.5A7.9,7.9,0,0,1,132,103.2Zm-2-82.4V13.7h-4.8V50.8h5V31.9c0-4.4,1.1-7.8,3.4-10.2s5.2-3.6,9.2-3.6h1.1V13.3a17,17,0,0,0-9.1,2.2A12.9,12.9,0,0,0,130,20.8Z"/>
</svg>
